<?xml version="1.0" encoding="UTF-8" standalone="no"?>
<svg width="400" height="400" viewBox="0 0 400 400" fill="none" xmlns="http://www.w3.org/2000/svg">
  <!-- Science pattern with atoms, molecules, and scientific elements -->
  
  <!-- Background grid -->
  <g stroke="#F59E0B" stroke-width="0.5" opacity="0.2">
    <line x1="0" y1="50" x2="400" y2="50" />
    <line x1="0" y1="100" x2="400" y2="100" />
    <line x1="0" y1="150" x2="400" y2="150" />
    <line x1="0" y1="200" x2="400" y2="200" />
    <line x1="0" y1="250" x2="400" y2="250" />
    <line x1="0" y1="300" x2="400" y2="300" />
    <line x1="0" y1="350" x2="400" y2="350" />
    
    <line x1="50" y1="0" x2="50" y2="400" />
    <line x1="100" y1="0" x2="100" y2="400" />
    <line x1="150" y1="0" x2="150" y2="400" />
    <line x1="200" y1="0" x2="200" y2="400" />
    <line x1="250" y1="0" x2="250" y2="400" />
    <line x1="300" y1="0" x2="300" y2="400" />
    <line x1="350" y1="0" x2="350" y2="400" />
  </g>
  
  <!-- Atom in center -->
  <circle cx="200" cy="200" r="8" fill="#F59E0B" opacity="0.8" />
  <ellipse cx="200" cy="200" rx="60" ry="20" stroke="#F59E0B" stroke-width="1.5" fill="none" opacity="0.6" />
  <ellipse cx="200" cy="200" rx="60" ry="20" stroke="#F59E0B" stroke-width="1.5" fill="none" opacity="0.6" transform="rotate(60 200 200)" />
  <ellipse cx="200" cy="200" rx="60" ry="20" stroke="#F59E0B" stroke-width="1.5" fill="none" opacity="0.6" transform="rotate(120 200 200)" />
  
  <!-- Molecules -->
  <circle cx="100" cy="100" r="6" fill="#F59E0B" opacity="0.6" />
  <circle cx="130" cy="80" r="6" fill="#F59E0B" opacity="0.6" />
  <circle cx="70" cy="80" r="6" fill="#F59E0B" opacity="0.6" />
  <line x1="100" y1="100" x2="130" y2="80" stroke="#F59E0B" stroke-width="1.5" opacity="0.6" />
  <line x1="100" y1="100" x2="70" y2="80" stroke="#F59E0B" stroke-width="1.5" opacity="0.6" />
  
  <!-- DNA Helix -->
  <path d="M300,50 C320,70 340,30 360,50 C380,70 400,30 420,50" stroke="#F59E0B" stroke-width="1.5" fill="none" opacity="0.6" />
  <path d="M300,90 C320,70 340,110 360,90 C380,70 400,110 420,90" stroke="#F59E0B" stroke-width="1.5" fill="none" opacity="0.6" />
  <line x1="300" y1="50" x2="300" y2="90" stroke="#F59E0B" stroke-width="1.5" opacity="0.6" />
  <line x1="360" y1="50" x2="360" y2="90" stroke="#F59E0B" stroke-width="1.5" opacity="0.6" />
  <line x1="420" y1="50" x2="420" y2="90" stroke="#F59E0B" stroke-width="1.5" opacity="0.6" />
  
  <!-- Lab Equipment -->
  <path d="M80,300 L60,350 L100,350 Z" stroke="#F59E0B" stroke-width="1.5" fill="none" opacity="0.6" />
  <rect x="70" y="350" width="20" height="10" stroke="#F59E0B" stroke-width="1.5" fill="none" opacity="0.6" />
  
  <path d="M150,320 C150,340 170,340 170,320 L170,280 L150,280 Z" stroke="#F59E0B" stroke-width="1.5" fill="none" opacity="0.6" />
  <rect x="145" y="320" width="30" height="10" stroke="#F59E0B" stroke-width="1.5" fill="none" opacity="0.6" />
  
  <!-- Wave Pattern -->
  <path d="M250,280 Q270,260 290,280 T330,280" stroke="#F59E0B" stroke-width="1.5" fill="none" opacity="0.6" />
  <path d="M250,300 Q270,320 290,300 T330,300" stroke="#F59E0B" stroke-width="1.5" fill="none" opacity="0.6" />
  <path d="M250,320 Q270,340 290,320 T330,320" stroke="#F59E0B" stroke-width="1.5" fill="none" opacity="0.6" />
</svg>



