<?xml version="1.0" encoding="UTF-8" standalone="no"?>
<svg width="400" height="400" viewBox="0 0 400 400" fill="none" xmlns="http://www.w3.org/2000/svg">
  <!-- Social Science pattern with maps, landmarks, and historical elements -->
  
  <!-- Background grid -->
  <g stroke="#EF4444" stroke-width="0.5" opacity="0.2">
    <line x1="0" y1="50" x2="400" y2="50" />
    <line x1="0" y1="100" x2="400" y2="100" />
    <line x1="0" y1="150" x2="400" y2="150" />
    <line x1="0" y1="200" x2="400" y2="200" />
    <line x1="0" y1="250" x2="400" y2="250" />
    <line x1="0" y1="300" x2="400" y2="300" />
    <line x1="0" y1="350" x2="400" y2="350" />
    
    <line x1="50" y1="0" x2="50" y2="400" />
    <line x1="100" y1="0" x2="100" y2="400" />
    <line x1="150" y1="0" x2="150" y2="400" />
    <line x1="200" y1="0" x2="200" y2="400" />
    <line x1="250" y1="0" x2="250" y2="400" />
    <line x1="300" y1="0" x2="300" y2="400" />
    <line x1="350" y1="0" x2="350" y2="400" />
  </g>
  
  <!-- Globe -->
  <circle cx="200" cy="150" r="80" stroke="#EF4444" stroke-width="1.5" fill="none" opacity="0.6" />
  <ellipse cx="200" cy="150" rx="80" ry="20" stroke="#EF4444" stroke-width="1" fill="none" opacity="0.6" />
  <path d="M120 150 L280 150" stroke="#EF4444" stroke-width="1" opacity="0.6" />
  <path d="M200 70 L200 230" stroke="#EF4444" stroke-width="1" opacity="0.6" />
  <path d="M200 150 C180 110, 220 110, 200 70" stroke="#EF4444" stroke-width="1" fill="none" opacity="0.6" />
  <path d="M200 150 C220 190, 180 190, 200 230" stroke="#EF4444" stroke-width="1" fill="none" opacity="0.6" />
  
  <!-- Map Elements -->
  <path d="M50,300 C70,280 100,320 120,290 C140,260 160,310 180,280 C200,250 220,290 240,270" stroke="#EF4444" stroke-width="1.5" fill="none" opacity="0.6" />
  <path d="M50,310 L240,310" stroke="#EF4444" stroke-width="1" opacity="0.6" />
  <circle cx="80" cy="290" r="5" fill="#EF4444" opacity="0.6" />
  <circle cx="160" cy="280" r="5" fill="#EF4444" opacity="0.6" />
  <circle cx="220" cy="270" r="5" fill="#EF4444" opacity="0.6" />
  
  <!-- Historical Landmarks -->
  <path d="M300,350 L300,300 L280,300 L280,350 Z" stroke="#EF4444" stroke-width="1.5" fill="none" opacity="0.6" />
  <path d="M290,300 L290,280 L310,280 L310,300" stroke="#EF4444" stroke-width="1.5" fill="none" opacity="0.6" />
  
  <path d="M350,350 L350,270 L370,270 L370,350" stroke="#EF4444" stroke-width="1.5" fill="none" opacity="0.6" />
  <path d="M340,300 L380,300" stroke="#EF4444" stroke-width="1.5" opacity="0.6" />
  
  <!-- People Icons -->
  <circle cx="50" cy="350" r="10" stroke="#EF4444" stroke-width="1.5" fill="none" opacity="0.6" />
  <path d="M50 360 L50 380" stroke="#EF4444" stroke-width="1.5" opacity="0.6" />
  <path d="M50 365 L40 375" stroke="#EF4444" stroke-width="1.5" opacity="0.6" />
  <path d="M50 365 L60 375" stroke="#EF4444" stroke-width="1.5" opacity="0.6" />
  <path d="M50 380 L45 390" stroke="#EF4444" stroke-width="1.5" opacity="0.6" />
  <path d="M50 380 L55 390" stroke="#EF4444" stroke-width="1.5" opacity="0.6" />
  
  <circle cx="80" cy="350" r="10" stroke="#EF4444" stroke-width="1.5" fill="none" opacity="0.6" />
  <path d="M80 360 L80 380" stroke="#EF4444" stroke-width="1.5" opacity="0.6" />
  <path d="M80 365 L70 375" stroke="#EF4444" stroke-width="1.5" opacity="0.6" />
  <path d="M80 365 L90 375" stroke="#EF4444" stroke-width="1.5" opacity="0.6" />
  <path d="M80 380 L75 390" stroke="#EF4444" stroke-width="1.5" opacity="0.6" />
  <path d="M80 380 L85 390" stroke="#EF4444" stroke-width="1.5" opacity="0.6" />
  
  <!-- Historical Dates -->
  <text x="50" y="50" font-family="serif" font-size="16" fill="#EF4444" opacity="0.6">1776</text>
  <text x="120" y="50" font-family="serif" font-size="16" fill="#EF4444" opacity="0.6">1789</text>
  <text x="190" y="50" font-family="serif" font-size="16" fill="#EF4444" opacity="0.6">1914</text>
  <text x="260" y="50" font-family="serif" font-size="16" fill="#EF4444" opacity="0.6">1945</text>
  <text x="330" y="50" font-family="serif" font-size="16" fill="#EF4444" opacity="0.6">1991</text>
</svg>



